<svg width="100" height="90" viewBox="0 0 100 90" fill="none" xmlns="http://www.w3.org/2000/svg">
<path fill-rule="evenodd" clip-rule="evenodd" d="M50.2968 89.7433C50.1973 89.8106 50.0984 89.8773 50 89.9435C49.9016 89.8773 49.8027 89.8106 49.7032 89.7433C28.7817 75.5916 -15.8216 36.0088 5.74458 11.0979C17.7379 -2.7554 31.0432 -1.43371 40.3836 3.25793C44.5189 5.33508 47.877 8.07277 50 10.4466C52.123 8.07277 55.4812 5.33507 59.6164 3.25793C68.9568 -1.43372 82.2621 -2.75541 94.2554 11.0979C115.822 36.0088 71.2183 75.5916 50.2968 89.7433ZM50 75.513C59.0073 68.5661 69.8914 58.7269 77.7037 48.3539C82.7912 41.5987 86.0321 35.3261 87.1074 30.0003C88.113 25.0194 87.205 21.2581 84.3951 18.0124C78.3537 11.0341 73.5768 10.9161 70.5574 11.4303C66.1875 12.1745 61.8708 15.1153 59.7375 17.5006L50 28.3884L40.2625 17.5006C38.1292 15.1153 33.8125 12.1745 29.4426 11.4303C26.4232 10.9161 21.6463 11.0341 15.6049 18.0124C12.795 21.2581 11.887 25.0194 12.8926 30.0003C13.9679 35.3261 17.2088 41.5987 22.2963 48.3539C30.1086 58.7269 40.9927 68.5661 50 75.513Z" fill="#FFC8C8"/>
</svg>
